<?xml version="1.0" encoding="UTF-8" standalone="no"?>
<!DOCTYPE svg PUBLIC "-//W3C//DTD SVG 1.1//EN"
 "http://www.w3.org/Graphics/SVG/1.1/DTD/svg11.dtd">
<!-- Generated by graphviz version 2.47.3 (20210619.1520)
 -->
<!-- Title: dependencies Pages: 1 -->
<svg width="292pt" height="247pt"
 viewBox="0.00 0.00 292.00 246.80" xmlns="http://www.w3.org/2000/svg" xmlns:xlink="http://www.w3.org/1999/xlink">
<g id="graph0" class="graph" transform="scale(1 1) rotate(0) translate(4 242.8)">
<title>dependencies</title>
<polygon fill="white" stroke="transparent" points="-4,4 -4,-242.8 288,-242.8 288,4 -4,4"/>
<text text-anchor="middle" x="142" y="-8.2" font-family="sans-serif" font-size="14.00">dependencies</text>
<g id="clust1" class="cluster">
<title>cluster_AppModule</title>
<polygon fill="none" stroke="black" stroke-dasharray="1,5" points="8,-32.8 8,-230.8 276,-230.8 276,-32.8 8,-32.8"/>
</g>
<g id="clust2" class="cluster">
<title>cluster_AppModule_declarations</title>
<polygon fill="none" stroke="black" points="16,-40.8 16,-92.8 268,-92.8 268,-40.8 16,-40.8"/>
</g>
<g id="clust7" class="cluster">
<title>cluster_AppModule_bootstrap</title>
<polygon fill="none" stroke="black" points="81,-170.8 81,-222.8 205,-222.8 205,-170.8 81,-170.8"/>
</g>
<!-- AppComponent -->
<g id="node1" class="node">
<title>AppComponent</title>
<polygon fill="#ffffb3" stroke="black" points="259.94,-84.8 154.06,-84.8 154.06,-48.8 259.94,-48.8 259.94,-84.8"/>
<text text-anchor="middle" x="207" y="-62.6" font-family="Times,serif" font-size="14.00">AppComponent</text>
</g>
<!-- AppModule -->
<g id="node3" class="node">
<title>AppModule</title>
<polygon fill="#8dd3c7" stroke="black" points="184.66,-149.8 181.66,-153.8 160.66,-153.8 157.66,-149.8 101.34,-149.8 101.34,-113.8 184.66,-113.8 184.66,-149.8"/>
<text text-anchor="middle" x="143" y="-127.6" font-family="Times,serif" font-size="14.00">AppModule</text>
</g>
<!-- AppComponent&#45;&gt;AppModule -->
<g id="edge1" class="edge">
<title>AppComponent&#45;&gt;AppModule</title>
<path fill="none" stroke="black" d="M169.55,-84.91C169.55,-84.91 169.55,-103.79 169.55,-103.79"/>
<polygon fill="black" stroke="black" points="166.05,-103.79 169.55,-113.79 173.05,-103.79 166.05,-103.79"/>
</g>
<!-- HelloComponent -->
<g id="node2" class="node">
<title>HelloComponent</title>
<polygon fill="#ffffb3" stroke="black" points="136.44,-84.8 23.56,-84.8 23.56,-48.8 136.44,-48.8 136.44,-84.8"/>
<text text-anchor="middle" x="80" y="-62.6" font-family="Times,serif" font-size="14.00">HelloComponent</text>
</g>
<!-- HelloComponent&#45;&gt;AppModule -->
<g id="edge2" class="edge">
<title>HelloComponent&#45;&gt;AppModule</title>
<path fill="none" stroke="black" d="M118.69,-84.91C118.69,-84.91 118.69,-103.79 118.69,-103.79"/>
<polygon fill="black" stroke="black" points="115.19,-103.79 118.69,-113.79 122.19,-103.79 115.19,-103.79"/>
</g>
<!-- AppComponent  -->
<g id="node4" class="node">
<title>AppComponent </title>
<polygon fill="#80b1d3" stroke="black" points="197.44,-214.8 88.56,-214.8 88.56,-178.8 197.44,-178.8 197.44,-214.8"/>
<text text-anchor="middle" x="143" y="-192.6" font-family="Times,serif" font-size="14.00">AppComponent </text>
</g>
<!-- AppModule&#45;&gt;AppComponent  -->
<g id="edge3" class="edge">
<title>AppModule&#45;&gt;AppComponent </title>
<path fill="none" stroke="black" stroke-dasharray="1,5" d="M143,-149.91C143,-149.91 143,-168.79 143,-168.79"/>
<polygon fill="black" stroke="black" points="139.5,-168.79 143,-178.79 146.5,-168.79 139.5,-168.79"/>
</g>
</g>
</svg>
